<svg height="512pt" viewBox="-102 0 512 512" width="512pt" xmlns="http://www.w3.org/2000/svg"><path d="m0 452.265625c0 14.140625 11.460938 25.601563 25.601562 25.601563h25.597657v17.066406c0 9.425781 7.640625 17.066406 17.066406 17.066406h34.132813c9.425781 0 17.066406-7.640625 17.066406-17.066406v-17.066406h68.269531v17.066406c0 9.425781 7.640625 17.066406 17.066406 17.066406h34.132813c9.425781 0 17.066406-7.640625 17.066406-17.066406v-17.066406h25.601562c14.136719 0 25.597657-11.460938 25.597657-25.601563v-324.265625c-.027344-23.550781-19.113281-42.636719-42.664063-42.667969h-34.136718c0-4.710937-3.820313-8.53125-8.53125-8.53125h-8.535157v-59.734375h8.535157c4.710937 0 8.53125-3.820312 8.53125-8.53125 0-4.714844-3.820313-8.535156-8.53125-8.535156h-136.535157c-4.710937 0-8.53125 3.820312-8.53125 8.535156 0 4.710938 3.820313 8.53125 8.53125 8.53125h8.535157v59.734375h-8.535157c-4.710937 0-8.53125 3.820313-8.53125 8.53125h-34.132812c-23.554688.03125-42.6406252 19.117188-42.667969 42.667969zm102.398438 42.667969h-34.132813v-17.066406h34.132813zm136.535156 0h-34.132813v-17.066406h34.132813zm-128-477.867188h85.332031v59.734375h-85.332031zm-93.867188 110.933594c0-14.136719 11.460938-25.601562 25.601563-25.601562h221.867187c14.136719 0 25.597656 11.464843 25.597656 25.601562v324.265625c0 4.714844-3.820312 8.535156-8.53125 8.535156h-256c-4.714843 0-8.535156-3.820312-8.535156-8.535156zm0 0"/><path d="m59.734375 443.734375h187.730469c14.140625 0 25.601562-11.460937 25.601562-25.601563v-273.066406c0-14.136718-11.460937-25.601562-25.601562-25.601562h-187.730469c-14.140625 0-25.601563 11.464844-25.601563 25.601562v273.066406c0 14.140626 11.460938 25.601563 25.601563 25.601563zm187.730469-17.066406h-187.730469c-4.714844 0-8.535156-3.820313-8.535156-8.535157v-238.933593h17.066406v17.066406c0 4.714844 3.820313 8.535156 8.535156 8.535156 4.710938 0 8.53125-3.820312 8.53125-8.535156v-17.066406h170.667969v238.933593c0 4.714844-3.820312 8.535157-8.535156 8.535157zm-187.730469-290.132813h187.730469c4.714844 0 8.535156 3.820313 8.535156 8.53125v17.066406h-204.800781v-17.066406c0-4.710937 3.820312-8.53125 8.535156-8.53125zm0 0"/><path d="m221.867188 238.933594h-136.535157c-9.425781 0-17.066406 7.640625-17.066406 17.066406v136.535156c0 9.425782 7.640625 17.066406 17.066406 17.066406h136.535157c9.425781 0 17.066406-7.640624 17.066406-17.066406v-136.535156c0-9.425781-7.640625-17.066406-17.066406-17.066406zm-136.535157 153.601562v-136.535156h136.535157v136.535156zm0 0"/><path d="m196.265625 273.066406h-85.332031c-4.714844 0-8.535156 3.820313-8.535156 8.535156 0 4.710938 3.820312 8.53125 8.535156 8.53125h8.53125v17.066407c0 4.714843 3.824218 8.535156 8.535156 8.535156s8.535156-3.820313 8.535156-8.535156v-17.066407h59.730469c4.714844 0 8.535156-3.820312 8.535156-8.53125 0-4.714843-3.820312-8.535156-8.535156-8.535156zm0 0"/></svg>