<?xml version="1.0" encoding="iso-8859-1"?>
<!-- Generator: Adobe Illustrator 19.0.0, SVG Export Plug-In . SVG Version: 6.00 Build 0)  -->
<svg version="1.1" id="Layer_1" xmlns="http://www.w3.org/2000/svg" xmlns:xlink="http://www.w3.org/1999/xlink" x="0px" y="0px"
	 viewBox="0 0 512 512" style="enable-background:new 0 0 512 512;" xml:space="preserve">
<g>
	<g>
		<g>
			<path d="M439.443,175.486c-6.802,0-13.381,0.961-19.627,2.719c-3.859-38.616-21.103-74.377-49.251-101.65
				c-30.876-29.915-71.56-46.389-114.561-46.389c-43.001,0-83.687,16.476-114.563,46.394
				c-28.148,27.274-45.391,63.034-49.25,101.648c-6.249-1.759-12.828-2.72-19.632-2.72C32.549,175.486,0,208.035,0,248.044
				c0,23.952,11.479,45.846,30.932,59.438v110.016c0,15.154,12.328,27.483,27.482,27.483h4.565l6.099,30.369
				c0.758,3.771,4.069,6.484,7.917,6.484h31.312c3.847,0,7.158-2.714,7.917-6.484l6.098-30.369h267.359l6.098,30.369
				c0.758,3.771,4.069,6.484,7.916,6.484h31.313c3.847,0,7.158-2.714,7.917-6.484l6.099-30.369h4.564
				c15.154,0,27.483-12.329,27.483-27.483V307.482C500.519,293.888,512,271.995,512,248.044
				C512,208.035,479.451,175.486,439.443,175.486z M152.679,88.156c27.845-26.983,64.541-41.842,103.326-41.842
				c38.782,0,75.476,14.859,103.322,41.839c26.564,25.739,42.359,59.853,44.825,96.526c-6.958,3.891-13.217,8.884-18.527,14.757
				v-4.624c0-71.473-58.148-129.621-129.62-129.621S126.385,123.34,126.385,194.812v4.631c-5.31-5.875-11.569-10.869-18.528-14.761
				C110.321,148.009,126.114,113.896,152.679,88.156z M101.693,465.687H83.608l-4.158-20.705h26.398L101.693,465.687z
				 M117.634,428.834h-59.22c-6.249,0-11.333-5.085-11.333-11.334V303.119c0-2.814-1.465-5.425-3.867-6.891
				c-16.947-10.346-27.066-28.359-27.066-48.184c0-31.104,25.306-56.41,56.41-56.41c31.104,0,56.408,25.306,56.409,56.41V417.5
				h0.001C128.968,423.75,123.884,428.834,117.634,428.834z M142.662,428.833c1.571-3.459,2.455-7.293,2.455-11.333V301.155h221.766
				v116.343c0,4.04,0.884,7.875,2.456,11.334H142.662z M369.475,228.865c-1.678,6.114-2.592,12.54-2.592,19.18v36.963H145.117
				v-36.963c0-6.63-0.912-13.047-2.585-19.153v-34.079c0-62.569,50.903-113.472,113.472-113.472
				c62.568,0,113.471,50.903,113.471,113.472V228.865z M428.393,465.687h-18.085l-4.157-20.705h26.4L428.393,465.687z
				 M468.787,296.226c-2.401,1.466-3.867,4.077-3.867,6.891v114.381c0,6.251-5.085,11.334-11.334,11.334h-59.219
				c-6.251,0-11.335-5.085-11.335-11.334V248.044c0.001-31.104,25.307-56.41,56.41-56.41c31.103,0,56.409,25.306,56.409,56.41
				C495.852,267.869,485.735,285.882,468.787,296.226z"/>
			<path d="M197.75,209.338c-12.178,0-22.085,9.907-22.085,22.085c0,12.177,9.907,22.085,22.085,22.085
				c12.178,0,22.085-9.907,22.085-22.085C219.834,219.244,209.927,209.338,197.75,209.338z M197.75,237.359
				c-3.273,0-5.936-2.663-5.936-5.936s2.663-5.936,5.936-5.936s5.936,2.663,5.936,5.936
				C203.685,234.695,201.023,237.359,197.75,237.359z"/>
			<path d="M314.258,141.154c-12.177,0-22.085,9.907-22.085,22.085c0,12.177,9.907,22.086,22.085,22.086
				c12.178,0,22.086-9.908,22.086-22.086C336.344,151.06,326.437,141.154,314.258,141.154z M314.258,169.175
				c-3.273,0-5.936-2.663-5.936-5.937c0-3.273,2.663-5.936,5.936-5.936c3.274,0,5.937,2.663,5.937,5.936
				C320.196,166.512,317.532,169.175,314.258,169.175z"/>
			<path d="M197.75,141.154c-12.178,0-22.085,9.907-22.085,22.085c0,12.177,9.907,22.086,22.085,22.086
				c12.178,0,22.085-9.908,22.085-22.086C219.834,151.06,209.927,141.154,197.75,141.154z M197.75,169.175
				c-3.273,0-5.936-2.663-5.936-5.937c0-3.273,2.663-5.936,5.936-5.936s5.936,2.663,5.936,5.936
				C203.685,166.512,201.023,169.175,197.75,169.175z"/>
			<path d="M314.258,209.338c-12.177,0-22.085,9.907-22.085,22.085c0,12.177,9.907,22.085,22.085,22.085
				c12.178,0,22.086-9.907,22.086-22.085C336.344,219.244,326.437,209.338,314.258,209.338z M314.258,237.359
				c-3.273,0-5.936-2.663-5.936-5.936s2.663-5.936,5.936-5.936c3.274,0,5.937,2.663,5.937,5.936S317.532,237.359,314.258,237.359z"
				/>
			<path d="M439.443,203.386c-24.266,0-44.075,19.454-44.646,43.586c-0.046,0.351-0.07,0.708-0.07,1.072v155.369
				c0,9.803,7.975,17.78,17.778,17.78h22.945c9.803,0,17.777-7.975,17.777-17.78V290.545c18.245-5.839,30.875-22.742,30.875-42.501
				C484.1,223.419,464.066,203.386,439.443,203.386z M443.901,276.207c-3.928,0.615-6.824,4-6.824,7.976v119.231
				c0,0.884-0.745,1.631-1.629,1.631h-22.945c-0.883,0-1.63-0.746-1.63-1.631V249.016c0.038-0.319,0.058-0.643,0.058-0.971
				c0.001-15.721,12.791-28.51,28.51-28.51c15.719,0,28.509,12.79,28.509,28.51C467.951,262.178,457.836,274.021,443.901,276.207z"
				/>
			<path d="M72.558,203.386c-24.624,0-44.658,20.034-44.658,44.658c0,19.759,12.629,36.662,30.875,42.501v112.868
				c0,9.803,7.974,17.78,17.777,17.78h22.945c9.802,0,17.777-7.975,17.777-17.78V248.044c0-0.361-0.024-0.715-0.07-1.061
				C116.637,222.846,96.826,203.386,72.558,203.386z M99.497,405.045H76.551c-0.883,0-1.629-0.746-1.629-1.631V284.183
				c0-3.976-2.896-7.362-6.824-7.976c-13.935-2.184-24.05-14.028-24.05-28.162c0-15.721,12.79-28.51,28.51-28.51
				s28.507,12.79,28.509,28.51c0,0.327,0.02,0.648,0.058,0.964v154.405h0.002C101.126,404.298,100.381,405.045,99.497,405.045z"/>
		</g>
	</g>
</g>
<g>
</g>
<g>
</g>
<g>
</g>
<g>
</g>
<g>
</g>
<g>
</g>
<g>
</g>
<g>
</g>
<g>
</g>
<g>
</g>
<g>
</g>
<g>
</g>
<g>
</g>
<g>
</g>
<g>
</g>
</svg>
