<?xml version="1.0" encoding="iso-8859-1"?>
<!-- Generator: Adobe Illustrator 19.0.0, SVG Export Plug-In . SVG Version: 6.00 Build 0)  -->
<svg version="1.1" id="Layer_1" xmlns="http://www.w3.org/2000/svg" xmlns:xlink="http://www.w3.org/1999/xlink" x="0px" y="0px"
	 viewBox="0 0 512 512" style="enable-background:new 0 0 512 512;" xml:space="preserve">
<g>
	<g>
		<g>
			<path d="M358.708,382.176h-40.191v-3.811c0-4.522-3.664-8.186-8.186-8.186h-1.944c43.178-18.95,74.24-60.568,78.014-109.713
				c11.893-4.898,20.036-16.649,20.036-29.885c0-13.311-8.129-25.016-20.05-29.898c-1.511-19.599-7.383-38.557-17.254-55.536V8.186
				c0-4.522-3.664-8.186-8.186-8.186H151.056c-4.522,0-8.186,3.664-8.186,8.186v136.967c-9.871,16.978-15.743,35.935-17.253,55.53
				c-11.921,4.883-20.05,16.587-20.05,29.898c0,13.236,8.142,24.986,20.036,29.885c3.774,49.144,34.834,90.763,78.013,109.713
				h-1.944c-4.522,0-8.186,3.664-8.186,8.186v3.811h-40.189c-33.587,0-60.912,27.323-60.912,60.909v60.73
				c0,4.522,3.664,8.186,8.186,8.186h310.86c4.522,0,8.186-3.664,8.186-8.186v-60.73C419.618,409.5,392.294,382.176,358.708,382.176
				z M386.788,220.918c2.06,2.701,3.277,6.059,3.277,9.664c0,3.583-1.218,6.938-3.277,9.643V220.918z M125.216,240.225
				c-2.058-2.705-3.276-6.06-3.276-9.643c0-3.605,1.217-6.962,3.276-9.664V240.225z M368.771,191.456
				c-9.718,2.283-19.679,3.459-29.709,3.459c-35.975,0-70.261-15.112-94.612-41.073h110.792
				C361.953,165.509,366.515,178.235,368.771,191.456z M159.242,16.372h193.52v65.125h-193.52V16.372z M159.242,97.868h193.52
				v39.602h-193.52V97.868z M156.764,153.842h40.681c-14.129,16.896-32.922,29.46-53.915,35.971
				C145.877,177.18,150.331,165.025,156.764,153.842z M141.588,250.358v-39.549c0-1.16,0.025-2.317,0.061-3.474
				c30.948-7.789,58.283-26.944,76.273-53.493h5.087c22.928,30.008,56.613,49.853,93.473,55.663
				c-5.838,1.136-10.245,6.271-10.245,12.444c0,7.002,5.677,12.681,12.679,12.681c7.006,0,12.686-5.68,12.686-12.681
				c0-5.038-2.944-9.374-7.198-11.422c4.847,0.493,9.738,0.759,14.659,0.759c10.553,0,21.042-1.141,31.304-3.389
				c0.024,0.97,0.051,1.937,0.051,2.91v39.549c0,63.087-51.326,114.412-114.415,114.412
				C192.915,364.768,141.588,313.445,141.588,250.358z M258.923,381.105c-0.139,0.353-0.274,0.709-0.39,1.073h-5.061
				c-0.116-0.363-0.251-0.719-0.39-1.073c0.971,0.022,1.944,0.037,2.921,0.037C256.98,381.142,257.952,381.125,258.923,381.105z
				 M403.246,495.628H108.758v-52.544c0-24.557,19.981-44.537,44.541-44.537h48.375c4.521,0,8.186-3.665,8.186-8.186v-3.811h27.192
				c0.476,0,0.862,0.388,0.862,0.863v2.948c0,4.521,3.664,8.186,8.186,8.186h19.805c4.522,0,8.186-3.665,8.186-8.186v-2.948
				c0-0.476,0.386-0.863,0.862-0.863h27.192v3.811c0,4.521,3.665,8.186,8.186,8.186h48.377c24.559,0,44.538,19.98,44.538,44.537
				V495.628z"/>
			<path d="M279.714,253.643v-10.446c0-13.152-10.699-23.851-23.851-23.851c-13.153,0-23.853,10.699-23.853,23.851v10.446
				c0,13.152,10.702,23.852,23.853,23.852C269.015,277.495,279.714,266.795,279.714,253.643z M263.342,253.643
				c0,4.125-3.355,7.481-7.48,7.481c-4.126,0-7.482-3.355-7.482-7.481v-10.446c0-4.123,3.356-7.48,7.482-7.48
				c4.123,0,7.48,3.355,7.48,7.48V253.643z"/>
			<path d="M193.088,209.266c-7.006,0-12.684,5.675-12.684,12.682c0,7.002,5.678,12.681,12.684,12.681
				c7.005,0,12.683-5.68,12.683-12.681C205.771,214.942,200.093,209.266,193.088,209.266z"/>
		</g>
	</g>
</g>
<g>
</g>
<g>
</g>
<g>
</g>
<g>
</g>
<g>
</g>
<g>
</g>
<g>
</g>
<g>
</g>
<g>
</g>
<g>
</g>
<g>
</g>
<g>
</g>
<g>
</g>
<g>
</g>
<g>
</g>
</svg>
