<?xml version="1.0" encoding="iso-8859-1"?>
<!-- Generator: Adobe Illustrator 19.0.0, SVG Export Plug-In . SVG Version: 6.00 Build 0)  -->
<svg version="1.1" id="Layer_1" xmlns="http://www.w3.org/2000/svg" xmlns:xlink="http://www.w3.org/1999/xlink" x="0px" y="0px"
	 viewBox="0 0 512 512" style="enable-background:new 0 0 512 512;" xml:space="preserve">
<g>
	<g>
		<g>
			<path d="M168.84,232.796c0.675,16.921,15.002,30.688,31.936,30.688h110.45c16.934,0,31.261-13.766,31.937-30.717l6.333-174.254
				c0.332-8.323-2.633-16.184-8.35-22.133c-5.716-5.948-13.451-9.225-21.78-9.225H192.638c-8.329,0-16.065,3.276-21.781,9.225
				s-8.681,13.81-8.35,22.103L168.84,232.796z M182.985,48.036c2.515-2.616,5.943-4.059,9.651-4.059h126.729
				c3.709,0,7.136,1.441,9.65,4.059c2.515,2.617,3.819,6.1,3.669,9.836l-6.333,174.253c-0.314,7.879-7.241,14.535-15.127,14.535
				h-110.45c-7.885,0-14.812-6.657-15.126-14.506l-6.335-174.313C179.167,54.135,180.471,50.653,182.985,48.036z"/>
			<path d="M377.868,282.974h-6.217l9.298-253.115c0.325-7.923-2.489-15.408-7.927-21.073C367.585,3.12,360.223,0,352.293,0H159.709
				c-7.93,0-15.291,3.12-20.728,8.786c-5.438,5.666-8.252,13.15-7.928,21.036l9.298,253.152h-6.217
				c-9.926,0-18.001,8.075-18.001,18.001v17.049c0,6.888,3.893,12.878,9.59,15.902v160.074c0,9.926,8.076,18.001,18.001,18.001
				h12.178c4.945,0,9.429-2.006,12.686-5.245c3.039,3.221,7.334,5.245,12.101,5.245h10.478c9.186,0,16.66-7.475,16.66-16.662
				V336.023h96.347v159.316c0,9.187,7.475,16.662,16.66,16.662h10.478c4.767,0,9.061-2.024,12.101-5.245
				c3.257,3.239,7.74,5.245,12.685,5.245h12.178c9.926,0,18.001-8.076,18.001-18.001V333.926c5.697-3.025,9.59-9.014,9.59-15.902
				v-17.049C395.869,291.049,387.794,282.974,377.868,282.974z M151.119,20.433c2.235-2.329,5.285-3.611,8.592-3.611h192.584
				c3.305,0,6.356,1.283,8.592,3.611c2.235,2.329,3.391,5.431,3.253,8.771l-9.323,253.77H157.185l-9.323-253.807
				C147.727,25.864,148.884,22.762,151.119,20.433z M157.082,493.999L157.082,493.999c0,0.628-0.551,1.179-1.179,1.179h-12.178
				c-0.628,0-1.179-0.551-1.179-1.179V336.024h14.535V493.999z M191.006,495.178h-10.155V336.024h10.155V495.178z M331.151,495.178
				h-10.155V336.024h10.155V495.178z M369.457,493.999c0,0.628-0.551,1.179-1.179,1.179H356.1c-0.628,0-1.179-0.551-1.179-1.179
				V336.024h14.535V493.999z M379.047,318.023c0,0.628-0.551,1.179-1.179,1.179H134.134c-0.628,0-1.179-0.551-1.179-1.179v-17.049
				c0-0.628,0.551-1.179,1.179-1.179h243.734c0.628,0,1.179,0.551,1.179,1.179V318.023z"/>
		</g>
	</g>
</g>
<g>
</g>
<g>
</g>
<g>
</g>
<g>
</g>
<g>
</g>
<g>
</g>
<g>
</g>
<g>
</g>
<g>
</g>
<g>
</g>
<g>
</g>
<g>
</g>
<g>
</g>
<g>
</g>
<g>
</g>
</svg>
