<?xml version="1.0" encoding="iso-8859-1"?>
<!-- Generator: Adobe Illustrator 19.0.0, SVG Export Plug-In . SVG Version: 6.00 Build 0)  -->
<svg version="1.1" id="Layer_1" xmlns="http://www.w3.org/2000/svg" xmlns:xlink="http://www.w3.org/1999/xlink" x="0px" y="0px"
	 viewBox="0 0 511.998 511.998" style="enable-background:new 0 0 511.998 511.998;" xml:space="preserve">
<g>
	<g>
		<g>
			<path d="M229.88,382.857h-15.925c-4.489,0-8.129,3.639-8.129,8.129s3.64,8.129,8.129,8.129h15.925
				c4.489,0,8.129-3.639,8.129-8.129S234.369,382.857,229.88,382.857z"/>
			<path d="M229.88,312.601h-15.925c-4.489,0-8.129,3.639-8.129,8.129s3.64,8.129,8.129,8.129h15.925
				c4.489,0,8.129-3.639,8.129-8.129C238.009,316.241,234.369,312.601,229.88,312.601z"/>
			<path d="M373.558,41.714h-32.561c-4.489,0-8.129,3.639-8.129,8.129V85.29c0,4.49,3.64,8.129,8.129,8.129h32.561
				c4.489,0,8.129-3.639,8.129-8.129V49.843C381.687,45.354,378.047,41.714,373.558,41.714z M365.429,77.161h-16.302V57.972h16.302
				V77.161z"/>
			<path d="M391.711,197.283v-18.209c21.143-0.111,38.309-17.339,38.309-38.507V38.512C430.022,17.276,412.745,0,391.509,0h-271.02
				C99.254,0,81.977,17.276,81.977,38.512v102.054c0,21.168,17.167,38.398,38.311,38.507v18.209c0,8.516,4.603,15.96,11.438,20.029
				v28.792h-2.83c-2.998,0-5.753,1.65-7.168,4.293s-1.259,5.851,0.404,8.345l9.594,14.389v43.715l-22.547,92.534
				c-1.371,5.624-1.382,11.231-0.131,16.389c-15.667,4.884-27.072,19.524-27.072,36.778v10.94c0,21.236,17.276,38.512,38.512,38.512
				h271.02c21.236,0,38.512-17.276,38.512-38.512v-10.94c0-17.254-11.406-31.895-27.073-36.779
				c1.251-5.156,1.24-10.764-0.131-16.388l-7.107-29.167c7.092-1.427,12.639-4.485,16.546-9.149
				c9.326-11.136,6.365-27.743,4.405-38.731c-0.62-3.478-1.606-9.674-2.651-16.233c-1.948-12.235-4.157-26.103-5.526-32.282
				c-3.544-15.997-13.269-27.242-28.211-32.811V217.31C387.108,213.242,391.711,205.799,391.711,197.283z M413.764,462.548v10.94
				c0,12.271-9.984,22.254-22.254,22.254H120.489c-12.27,0-22.254-9.984-22.254-22.254v-10.94c0-12.271,9.984-22.254,22.254-22.254
				h271.02C403.78,440.294,413.764,450.278,413.764,462.548z M380.274,269.049c5.889,3.66,10.372,9.418,12.338,18.287
				c1.263,5.701,3.525,19.907,5.342,31.322c1.103,6.924,2.055,12.902,2.702,16.529c1.429,8.013,3.588,20.122-0.864,25.44
				c-1.58,1.887-4.254,3.14-7.934,3.775l-11.584-47.546V269.049z M387.022,413.23c0.966,3.965,0.76,7.685-0.541,10.806H125.516
				c-1.301-3.123-1.507-6.842-0.541-10.806l13.264-54.438h68.141c1.177,3.038,4.121,5.195,7.574,5.195h15.925
				c3.453,0,6.397-2.157,7.574-5.195h10.416v43.339c0,4.49,3.64,8.129,8.129,8.129c4.489,0,8.129-3.639,8.129-8.129v-43.339h109.629
				L387.022,413.23z M255.999,301.457c-4.489,0-8.129,3.639-8.129,8.129v32.948H142.2l9.366-38.437
				c3.079-12.638,16.671-23.315,29.679-23.315h149.508c13.009,0,26.599,10.677,29.679,23.315l9.366,38.437H264.128v-32.948
				C264.128,305.096,260.489,301.457,255.999,301.457z M346.07,247.232v-12.558c0-4.49-3.64-8.129-8.129-8.129H174.058
				c-4.489,0-8.129,3.639-8.129,8.129v11.43h-17.945v-25.501h216.031v26.766C357.287,246.691,350.998,246.892,346.07,247.232z
				 M364.015,263.797v15.195c-5.069-5.094-11.248-9.126-17.946-11.626v-3.814C352.027,263.149,358.184,263.07,364.015,263.797z
				 M174.058,262.363c4.489,0,8.129-3.639,8.129-8.129v-11.43h147.624v21.721H181.244c-10.359,0-20.552,3.963-28.754,10.445
				l-8.404-12.607H174.058z M368.391,204.344H143.609c-3.894,0-7.063-3.168-7.063-7.063v-18.204h238.908v18.204
				C375.453,201.176,372.285,204.344,368.391,204.344z M120.489,162.82v0.001c-12.27,0-22.254-9.984-22.254-22.254V38.512
				c0-12.271,9.984-22.254,22.254-22.254h271.02c12.271,0,22.254,9.984,22.254,22.254v102.054c0,12.271-9.984,22.254-22.254,22.254
				H120.489z"/>
			<circle cx="320.818" cy="120.735" r="11.139"/>
			<circle cx="357.278" cy="120.735" r="11.139"/>
		</g>
	</g>
</g>
<g>
</g>
<g>
</g>
<g>
</g>
<g>
</g>
<g>
</g>
<g>
</g>
<g>
</g>
<g>
</g>
<g>
</g>
<g>
</g>
<g>
</g>
<g>
</g>
<g>
</g>
<g>
</g>
<g>
</g>
</svg>
