<?xml version="1.0" encoding="iso-8859-1"?>
<!-- Generator: Adobe Illustrator 19.0.0, SVG Export Plug-In . SVG Version: 6.00 Build 0)  -->
<svg version="1.1" id="Layer_1" xmlns="http://www.w3.org/2000/svg" xmlns:xlink="http://www.w3.org/1999/xlink" x="0px" y="0px"
	 viewBox="0 0 512 512" style="enable-background:new 0 0 512 512;" xml:space="preserve">
<g>
	<g>
		<path d="M437.81,268.19c-54.246-57.532-56.993-220.218-56.993-252.246c0-4.536-3.676-8.213-8.213-8.213H269.647
			C266.857,3.104,261.798,0,255.999,0c-5.797,0-10.856,3.104-13.646,7.731H139.391c-4.536,0-8.213,3.677-8.213,8.213
			c0,32.03-2.747,194.719-56.988,252.246c-2.248,2.385-2.864,5.878-1.565,8.888c1.299,3.01,4.263,4.958,7.54,4.958h136.835v112.094
			c-7.164,3.167-12.181,10.331-12.181,18.653c0,8.323,5.017,15.486,12.181,18.653v17.269h-4.702
			c-12.079,0-22.656,7.734-26.745,18.606h-4.41c-15.742,0-28.547,12.807-28.547,28.55v7.927c0,4.536,3.677,8.213,8.213,8.213
			h190.381c4.537,0,8.213-3.677,8.213-8.213v-7.927c0-15.742-12.807-28.55-28.551-28.55h-4.407
			c-4.089-10.872-14.667-18.606-26.744-18.606H295v-17.269c7.163-3.167,12.18-10.331,12.18-18.653
			c0-8.322-5.017-15.486-12.18-18.653V282.037h27.552v43.983c-8.388,3.293-14.35,11.452-14.35,20.995
			c0,12.443,10.121,22.565,22.562,22.565c12.442,0,22.563-10.124,22.563-22.565c0-9.542-5.962-17.701-14.349-20.995v-43.983h92.857
			c3.277,0,6.242-1.949,7.54-4.958C440.673,274.069,440.058,270.575,437.81,268.19z M97.226,265.613v-0.001
			c43.911-63.919,49.808-190.936,50.333-241.455h48.649c0.007,1.238,0.014,2.505,0.023,3.824
			c0.316,51.833,1.044,171.802-35.14,237.632H97.226z M330.853,483.736c6.591,0,11.97,5.285,12.122,11.838h-173.95
			c0.152-6.554,5.53-11.838,12.119-11.838H330.853z M299.7,465.132c2.536,0,4.909,0.811,6.878,2.18h-101.16
			c1.969-1.369,4.343-2.18,6.88-2.18H299.7z M286.786,408.815c2.188,0,3.967,1.781,3.967,3.968c0,2.189-1.779,3.968-3.967,3.968
			h-61.574c-2.189,0-3.968-1.779-3.968-3.968c0-2.188,1.779-3.968,3.968-3.968H286.786z M233.425,392.39V282.037h45.148V392.39
			H233.425z M278.574,433.178v15.528h-45.148v-15.528H278.574z M179.553,265.612c34.117-70.732,33.416-186.577,33.103-237.732
			c-0.008-1.282-0.015-2.516-0.022-3.723h86.73c-0.007,1.206-0.014,2.441-0.022,3.723c-0.312,51.154-1.014,167,33.103,237.732
			H179.553z M330.764,353.156c-3.384,0-6.137-2.755-6.137-6.14c0-3.386,2.754-6.14,6.137-6.14c3.385,0,6.138,2.754,6.138,6.14
			C336.902,350.401,334.148,353.156,330.764,353.156z M350.908,265.611v0.001c-36.183-65.83-35.457-185.799-35.141-237.632
			c0.009-1.318,0.016-2.585,0.022-3.824h48.645c0.526,50.518,6.423,177.533,50.339,241.455H350.908z"/>
	</g>
</g>
<g>
</g>
<g>
</g>
<g>
</g>
<g>
</g>
<g>
</g>
<g>
</g>
<g>
</g>
<g>
</g>
<g>
</g>
<g>
</g>
<g>
</g>
<g>
</g>
<g>
</g>
<g>
</g>
<g>
</g>
</svg>
