<?xml version="1.0" encoding="iso-8859-1"?>
<!-- Generator: Adobe Illustrator 19.0.0, SVG Export Plug-In . SVG Version: 6.00 Build 0)  -->
<svg version="1.1" id="Layer_1" xmlns="http://www.w3.org/2000/svg" xmlns:xlink="http://www.w3.org/1999/xlink" x="0px" y="0px"
	 viewBox="0 0 512.002 512.002" style="enable-background:new 0 0 512.002 512.002;" xml:space="preserve">
<g>
	<g>
		<path d="M475.009,111.797c-12.778,0-23.174,10.396-23.174,23.174v29.708h-12.573C429.432,72.246,350.998,0,256.001,0
			S82.57,72.246,72.739,164.679H60.168v-29.708c0-12.778-10.396-23.174-23.174-23.174c-12.777,0-23.173,10.396-23.173,23.174v49.337
			c0,124.165,93.93,226.787,214.461,240.585v20.934h-24.018c-13.723,0-26.054,7.937-31.961,19.919
			c-19.823,1.101-35.613,17.572-35.613,37.667c0,4.744,3.845,8.59,8.59,8.59h221.441c4.744,0,8.59-3.846,8.59-8.59
			c0-20.093-15.79-36.565-35.613-37.667c-5.905-11.983-18.235-19.919-31.957-19.919h-24.018v-20.934
			c120.53-13.8,214.459-116.422,214.459-240.587V134.97C498.181,122.193,487.786,111.797,475.009,111.797z M440.278,181.858h11.557
			v2.449c0,1.854-0.031,3.702-0.082,5.543h-11.533c0.055-1.842,0.091-3.688,0.091-5.543
			C440.309,183.488,440.288,182.675,440.278,181.858z M256.001,17.179c92.155,0,167.128,74.973,167.128,167.127
			s-74.973,167.127-167.128,167.127S88.872,276.462,88.872,184.307S163.845,17.179,256.001,17.179z M73.095,207.029
			c11.232,90.946,88.972,161.584,182.906,161.584s171.675-70.64,182.906-161.584h11.602
			c-11.297,97.317-94.211,173.11-194.508,173.11S72.79,304.346,61.493,207.029H73.095z M71.725,181.858
			c-0.011,0.817-0.031,1.63-0.031,2.449c0,1.855,0.036,3.702,0.091,5.543H60.251c-0.052-1.842-0.082-3.689-0.082-5.543v-2.449
			H71.725z M337.583,482.861c8.266,0,15.406,4.906,18.665,11.959H155.752c3.258-7.054,10.399-11.959,18.665-11.959H337.583z
			 M307.739,463.005c3.447,0,6.718,0.976,9.531,2.677h-122.54c2.813-1.701,6.086-2.677,9.532-2.677H307.739z M245.46,445.826
			L245.46,445.826v-19.581c3.497,0.15,7.007,0.243,10.54,0.243c3.533,0,7.044-0.093,10.541-0.243v19.581H245.46z M256.001,409.308
			c-124.066,0-225.001-100.934-225.001-225.001V134.97c0-3.305,2.689-5.995,5.993-5.995c3.305,0,5.994,2.689,5.994,5.995v49.337
			c0,117.456,95.558,213.012,213.012,213.012s213.012-95.558,213.012-213.012V134.97c0-3.305,2.69-5.995,5.995-5.995
			c3.305,0,5.993,2.689,5.993,5.995v49.337h0.002C481.002,308.373,380.067,409.308,256.001,409.308z"/>
	</g>
</g>
<g>
</g>
<g>
</g>
<g>
</g>
<g>
</g>
<g>
</g>
<g>
</g>
<g>
</g>
<g>
</g>
<g>
</g>
<g>
</g>
<g>
</g>
<g>
</g>
<g>
</g>
<g>
</g>
<g>
</g>
</svg>
