<?xml version="1.0" encoding="iso-8859-1"?>
<!-- Generator: Adobe Illustrator 19.0.0, SVG Export Plug-In . SVG Version: 6.00 Build 0)  -->
<svg version="1.1" id="Layer_1" xmlns="http://www.w3.org/2000/svg" xmlns:xlink="http://www.w3.org/1999/xlink" x="0px" y="0px"
	 viewBox="0 0 512 512" style="enable-background:new 0 0 512 512;" xml:space="preserve">
<g>
	<g>
		<g>
			<path d="M182.109,206.305h147.783c12.469,0,22.612-10.143,22.612-22.612V88.995c0-12.469-10.143-22.612-22.612-22.612H182.109
				c-12.469,0-22.612,10.143-22.612,22.612v94.698C159.497,196.161,169.641,206.305,182.109,206.305z M175.885,88.995
				c0-3.432,2.792-6.223,6.223-6.223h147.783c3.432,0,6.223,2.792,6.223,6.223v94.698c0,3.432-2.792,6.223-6.223,6.223H182.109
				c-3.432,0-6.223-2.792-6.223-6.223V88.995z"/>
			<circle cx="256.001" cy="38.233" r="14.419"/>
			<path d="M167.872,226.884v14.419c0,8.493,6.909,15.403,15.402,15.403h43.927c8.493,0,15.403-6.909,15.403-15.403v-14.419
				c0-8.494-6.909-15.404-15.403-15.404h-43.927v0C174.782,211.48,167.872,218.391,167.872,226.884z M184.261,227.868h41.954v12.449
				h-41.954V227.868z"/>
			<path d="M269.397,226.884v14.419c0,8.493,6.909,15.403,15.403,15.403h43.927c8.493,0,15.402-6.909,15.402-15.403v-14.419
				c0-8.494-6.909-15.404-15.402-15.404H284.8v0C276.307,211.48,269.397,218.391,269.397,226.884z M285.785,227.868h41.954v12.449
				h-41.954V227.868z"/>
			<path d="M344.307,0H167.693c-19.425,0-35.228,15.803-35.228,35.228v441.544c0,19.425,15.803,35.228,35.228,35.228h176.614
				c19.425,0,35.228-15.803,35.228-35.228V35.228C379.535,15.803,363.732,0,344.307,0z M363.146,476.772
				c0,10.388-8.451,18.839-18.839,18.839H167.693c-10.388,0-18.839-8.451-18.839-18.839V35.228c0-10.388,8.451-18.839,18.839-18.839
				h176.614c10.388,0,18.839,8.451,18.839,18.839V476.772z"/>
			<path d="M303.423,267.949c-5.285,0-9.954,2.677-12.73,6.744c-2.775-4.068-7.445-6.744-12.73-6.744h-43.926
				c-5.285,0-9.954,2.677-12.73,6.744c-2.775-4.068-7.445-6.744-12.73-6.744h-43.926c-8.494,0-15.403,6.909-15.403,15.403v14.42
				c0,6.83,4.473,12.629,10.641,14.641c-6.168,2.011-10.641,7.81-10.641,14.641v14.419c0,6.83,4.471,12.628,10.637,14.641
				c-6.167,2.013-10.637,7.811-10.637,14.642v14.418c0,6.83,4.472,12.629,10.64,14.641c-6.168,2.013-10.64,7.811-10.64,14.641
				v14.419c0,8.494,6.909,15.404,15.403,15.404h43.926c5.285,0,9.954-2.677,12.73-6.745c2.775,4.068,7.445,6.745,12.73,6.745h43.926
				c5.285,0,9.954-2.677,12.73-6.745c2.775,4.068,7.445,6.745,12.73,6.745h43.926c8.494,0,15.403-6.911,15.403-15.404v-14.419
				c0-6.83-4.472-12.629-10.639-14.641c6.168-2.013,10.639-7.811,10.639-14.641v-14.418c0-6.831-4.471-12.629-10.637-14.642
				c6.167-2.013,10.637-7.811,10.637-14.641v-14.419c0-6.83-4.473-12.629-10.641-14.641c6.168-2.011,10.641-7.81,10.641-14.641
				v-14.42c0-8.494-6.909-15.403-15.403-15.403H303.423z M207.592,427.888h-41.955v-12.45h41.955V427.888z M207.592,384.187h-41.955
				v-12.45h41.955V384.187z M207.592,340.487h-41.955V328.04h41.955V340.487z M207.592,296.786h-41.955v-12.449h41.955V296.786z
				 M221.308,405.795c-1.902-2.787-4.696-4.915-7.966-5.982c3.27-1.067,6.064-3.195,7.966-5.982
				c1.902,2.787,4.696,4.915,7.966,5.982C226.004,400.879,223.209,403.007,221.308,405.795z M213.343,356.112
				c3.27-1.067,6.063-3.195,7.965-5.982c1.901,2.787,4.695,4.914,7.965,5.982c-3.27,1.067-6.063,3.195-7.965,5.982
				C219.406,359.307,216.613,357.18,213.343,356.112z M221.308,318.395c-1.902-2.788-4.697-4.915-7.967-5.983
				c3.27-1.066,6.065-3.195,7.967-5.983c1.902,2.788,4.696,4.915,7.967,5.983C226.004,313.479,223.21,315.607,221.308,318.395z
				 M276.977,427.888h-41.954v-12.45h41.954V427.888z M276.977,384.187h-41.954v-12.45h41.954V384.187z M276.977,340.487h-41.954
				V328.04h41.954V340.487z M276.977,296.786h-41.954v-12.449h41.954V296.786z M290.693,405.795
				c-1.902-2.787-4.696-4.915-7.965-5.982c3.27-1.067,6.064-3.195,7.965-5.982c1.902,2.787,4.696,4.915,7.966,5.982
				C295.388,400.879,292.594,403.007,290.693,405.795z M282.728,356.112c3.27-1.067,6.063-3.195,7.965-5.982
				c1.902,2.787,4.695,4.914,7.965,5.982c-3.27,1.067-6.063,3.195-7.965,5.982C288.791,359.307,285.998,357.18,282.728,356.112z
				 M290.693,318.395c-1.902-2.788-4.696-4.915-7.967-5.983c3.271-1.066,6.065-3.195,7.967-5.983
				c1.902,2.788,4.697,4.915,7.967,5.983C295.389,313.479,292.595,315.607,290.693,318.395z M346.363,427.888h-41.955v-12.45h41.955
				V427.888z M346.363,384.187h-41.955v-12.45h41.955V384.187z M346.363,340.487h-41.955V328.04h41.955V340.487z M346.363,296.786
				h-41.955v-12.449h41.955V296.786z"/>
			<path d="M274.626,461.07h-37.251c-4.525,0-8.194,3.669-8.194,8.194s3.669,8.194,8.194,8.194h37.251
				c4.525,0,8.194-3.669,8.194-8.194C282.82,464.738,279.151,461.07,274.626,461.07z"/>
		</g>
	</g>
</g>
<g>
</g>
<g>
</g>
<g>
</g>
<g>
</g>
<g>
</g>
<g>
</g>
<g>
</g>
<g>
</g>
<g>
</g>
<g>
</g>
<g>
</g>
<g>
</g>
<g>
</g>
<g>
</g>
<g>
</g>
</svg>
