<?xml version="1.0" encoding="iso-8859-1"?>
<!-- Generator: Adobe Illustrator 19.0.0, SVG Export Plug-In . SVG Version: 6.00 Build 0)  -->
<svg version="1.1" id="Layer_1" xmlns="http://www.w3.org/2000/svg" xmlns:xlink="http://www.w3.org/1999/xlink" x="0px" y="0px"
	 viewBox="0 0 512.001 512.001" style="enable-background:new 0 0 512.001 512.001;" xml:space="preserve">
<g>
	<g>
		<g>
			<path d="M102.096,117.288c1.603,1.603,3.706,2.406,5.807,2.406s4.204-0.802,5.807-2.406
				c24.651-24.65,57.363-38.224,92.112-38.224c34.748,0,67.461,13.575,92.112,38.223c3.207,3.208,8.407,3.207,11.615,0
				l17.038-17.038c1.541-1.54,2.406-3.629,2.406-5.807c0-2.178-0.865-4.267-2.406-5.808
				c-32.305-32.302-75.193-50.092-120.764-50.092c-45.572,0-88.46,17.791-120.765,50.094c-1.541,1.54-2.406,3.629-2.406,5.807
				c0,2.178,0.865,4.267,2.406,5.807L102.096,117.288z M205.821,54.967c38.441,0,74.776,14.012,103.192,39.625l-5.431,5.432
				c-26.961-24.169-61.367-37.386-97.76-37.386c-36.394,0-70.8,13.217-97.761,37.387l-5.431-5.431
				C131.046,68.979,167.38,54.967,205.821,54.967z"/>
			<path d="M432.52,327.837H309.332c-13.454,0-24.399,10.946-24.399,24.399v15.107c0,13.454,10.946,24.399,24.399,24.399H432.52
				c13.454,0,24.399-10.946,24.399-24.399v-15.107C456.919,338.782,445.973,327.837,432.52,327.837z M440.494,367.342
				c0,4.398-3.577,7.974-7.974,7.974H309.332c-4.398,0-7.974-3.577-7.974-7.974v-15.107c0-4.398,3.577-7.974,7.974-7.974H432.52
				c4.398,0,7.974,3.577,7.974,7.974V367.342z"/>
			<path d="M458.465,258.769h-1.546v-6.652c0-3.971-2.817-7.282-6.561-8.046V126.388c0-15.239-12.398-27.636-27.636-27.636
				s-27.637,12.398-27.637,27.636v117.683c-3.744,0.764-6.561,4.077-6.561,8.046v6.652H53.535C24.016,258.769,0,282.785,0,312.305
				v94.969c0,26.831,19.841,49.11,45.621,52.947c1.44,7.528,8.065,13.239,16.007,13.239h68.926c7.732,0,14.211-5.416,15.878-12.649
				h219.137c1.666,7.234,8.145,12.649,15.878,12.649h68.926c7.942,0,14.567-5.71,16.007-13.239
				c25.78-3.837,45.622-26.116,45.622-52.947v-94.969C512,282.785,487.984,258.769,458.465,258.769z M422.722,115.177
				c6.181,0,11.211,5.029,11.211,11.211v117.517H411.51V126.388h0C411.51,120.205,416.54,115.177,422.722,115.177z M495.575,407.274
				c0,20.462-16.647,37.11-37.111,37.11H53.535c-20.462,0-37.11-16.647-37.11-37.11v-94.969c0-20.463,16.647-37.111,37.11-37.111
				h404.929c20.463,0,37.111,16.647,37.111,37.111V407.274z"/>
			<path d="M254.444,172.399c1.541-1.541,2.406-3.629,2.406-5.808c0-2.178-0.865-4.267-2.405-5.808
				c-12.988-12.989-30.256-20.143-48.623-20.143c-18.364,0-35.63,7.15-48.618,20.135c-1.541,1.54-2.406,3.629-2.406,5.807
				c-0.001,2.178,0.865,4.267,2.405,5.808l17.036,17.04c3.207,3.207,8.407,3.208,11.614,0.001c5.335-5.334,12.427-8.271,19.97-8.271
				c7.544,0,14.635,2.938,19.967,8.271c1.604,1.604,3.706,2.406,5.808,2.406c2.101,0,4.203-0.802,5.807-2.405L254.444,172.399z
				 M231.068,172.542c-7.375-5.074-16.101-7.804-25.246-7.804c-9.144,0-17.869,2.73-25.244,7.803l-5.502-5.503
				c8.882-6.475,19.547-9.97,30.748-9.97c11.202,0,21.868,3.496,30.75,9.973L231.068,172.542z"/>
			<path d="M205.821,183.147c-14.475,0-26.252,11.777-26.252,26.253c0,14.475,11.777,26.252,26.252,26.252
				s26.252-11.777,26.252-26.252C232.073,194.924,220.297,183.147,205.821,183.147z M205.821,219.226
				c-5.418,0-9.827-4.408-9.827-9.827c0-5.419,4.408-9.828,9.827-9.828s9.827,4.409,9.827,9.828
				C215.648,214.818,211.241,219.226,205.821,219.226z"/>
			<circle cx="357.166" cy="308.237" r="10.521"/>
			<path d="M273.46,153.361l17.038-17.038c1.541-1.54,2.406-3.629,2.406-5.807c0-2.178-0.865-4.267-2.406-5.808
				c-22.647-22.645-52.719-35.115-84.677-35.115c-31.96,0-62.034,12.474-84.683,35.124c-1.541,1.541-2.406,3.629-2.406,5.807
				c0,2.178,0.865,4.267,2.406,5.807l17.039,17.038c1.541,1.541,3.629,2.406,5.807,2.406c2.178,0,4.267-0.865,5.808-2.406
				c14.995-14.997,34.893-23.256,56.03-23.256c21.134,0,41.031,8.256,56.025,23.248C265.053,156.568,270.254,156.567,273.46,153.361
				z M205.821,113.688c-22.774,0-44.353,7.935-61.595,22.502l-5.442-5.442c18.706-16.006,42.214-24.731,67.037-24.731
				c24.822,0,48.328,8.724,67.03,24.723l-5.442,5.442C250.169,121.62,228.593,113.688,205.821,113.688z"/>
			<circle cx="403.298" cy="308.237" r="10.521"/>
			<path d="M142.07,327.837h-15.107c-11.523,0-21.199,8.032-23.741,18.789c-2.542-10.757-12.218-18.789-23.741-18.789H64.374
				c-13.454,0-24.399,10.946-24.399,24.399v15.107c0,13.454,10.946,24.399,24.399,24.399h15.107
				c11.523,0,21.199-8.032,23.741-18.789c2.542,10.757,12.218,18.789,23.741,18.789h15.107c13.454,0,24.399-10.946,24.399-24.399
				v-15.107C166.469,338.782,155.523,327.837,142.07,327.837z M87.455,367.342c0,4.398-3.577,7.974-7.974,7.974H64.374
				c-4.398,0-7.974-3.577-7.974-7.974v-15.107c0-4.398,3.577-7.974,7.974-7.974h15.107c4.398,0,7.974,3.577,7.974,7.974V367.342z
				 M150.044,367.342c0,4.398-3.577,7.974-7.974,7.974h-15.107c-4.398,0-7.974-3.577-7.974-7.974v-15.107
				c0-4.398,3.577-7.974,7.974-7.974h15.107c4.398,0,7.974,3.577,7.974,7.974V367.342z"/>
		</g>
	</g>
</g>
<g>
</g>
<g>
</g>
<g>
</g>
<g>
</g>
<g>
</g>
<g>
</g>
<g>
</g>
<g>
</g>
<g>
</g>
<g>
</g>
<g>
</g>
<g>
</g>
<g>
</g>
<g>
</g>
<g>
</g>
</svg>
