<?xml version="1.0" encoding="iso-8859-1"?>
<!-- Generator: Adobe Illustrator 19.0.0, SVG Export Plug-In . SVG Version: 6.00 Build 0)  -->
<svg version="1.1" id="Layer_1" xmlns="http://www.w3.org/2000/svg" xmlns:xlink="http://www.w3.org/1999/xlink" x="0px" y="0px"
	 viewBox="0 0 512 512" style="enable-background:new 0 0 512 512;" xml:space="preserve">
<g>
	<g>
		<g>
			<rect x="45.731" y="338.087" width="240.322" height="16.595"/>
			<rect x="45.731" y="374.343" width="240.322" height="16.595"/>
			<path d="M224.733,238.285c4.582,0,8.297-3.714,8.297-8.297v-26.715c0-4.583-3.715-8.297-8.297-8.297H45.731
				c-4.582,0-8.297,3.714-8.297,8.297v26.715c0,4.583,3.715,8.297,8.297,8.297H224.733z M54.029,211.57h162.407v10.12H54.029V211.57
				z"/>
			<rect x="45.731" y="301.833" width="240.322" height="16.595"/>
			<rect x="45.731" y="151.088" width="420.644" height="16.595"/>
			<path d="M320.69,203.272v26.714c0,4.584,3.715,8.297,8.297,8.297h137.388c4.582,0,8.297-3.714,8.297-8.297v-26.714
				c0-4.584-3.715-8.297-8.297-8.297H328.988C324.405,194.975,320.69,198.689,320.69,203.272z M337.285,211.571h120.793v10.12
				H337.285V211.571z"/>
			<rect x="45.731" y="265.577" width="240.322" height="16.595"/>
			<path d="M466.376,240.546H328.988c-4.582,0-8.297,3.714-8.297,8.297v156.696c0,4.582,3.715,8.297,8.297,8.297h137.388
				c4.582,0,8.297-3.715,8.297-8.297V248.843C474.674,244.261,470.959,240.546,466.376,240.546z M458.079,397.242H337.285V257.141
				h120.793V397.242z"/>
			<path d="M509.135,98.73l-41.284-35.752c-3.118-2.699-7.747-2.699-10.864,0l-35.852,31.048l-35.852-31.048
				c-3.118-2.699-7.745-2.699-10.863,0l-35.853,31.048l-35.852-31.048c-3.118-2.699-7.745-2.699-10.863,0L256,94.026l-35.853-31.048
				c-3.118-2.699-7.747-2.699-10.863,0l-35.852,31.048L137.58,62.978c-3.118-2.699-7.747-2.699-10.863,0L90.865,94.026
				L55.013,62.978c-3.118-2.699-7.747-2.699-10.864,0L2.865,98.73C1.045,100.306,0,102.595,0,105.003v337.747
				c0,4.584,3.715,8.297,8.297,8.297h495.405c4.582,0,8.297-3.714,8.297-8.297V105.003C512,102.595,510.955,100.306,509.135,98.73z
				 M495.406,434.452h-0.001H16.595V108.794l32.986-28.567l35.852,31.048c3.118,2.698,7.747,2.698,10.864,0l35.852-31.048
				l35.853,31.048c3.118,2.698,7.745,2.698,10.864,0l35.851-31.048l35.853,31.048c3.118,2.698,7.745,2.698,10.863,0l35.853-31.048
				l35.851,31.048c3.119,2.698,7.747,2.698,10.864,0l35.853-31.048l35.852,31.048c3.118,2.698,7.747,2.698,10.864,0l35.852-31.048
				l32.986,28.567V434.452z"/>
		</g>
	</g>
</g>
<g>
</g>
<g>
</g>
<g>
</g>
<g>
</g>
<g>
</g>
<g>
</g>
<g>
</g>
<g>
</g>
<g>
</g>
<g>
</g>
<g>
</g>
<g>
</g>
<g>
</g>
<g>
</g>
<g>
</g>
</svg>
