<?xml version="1.0" encoding="iso-8859-1"?>
<!-- Generator: Adobe Illustrator 19.0.0, SVG Export Plug-In . SVG Version: 6.00 Build 0)  -->
<svg version="1.1" id="Layer_1" xmlns="http://www.w3.org/2000/svg" xmlns:xlink="http://www.w3.org/1999/xlink" x="0px" y="0px"
	 viewBox="0 0 511.999 511.999" style="enable-background:new 0 0 511.999 511.999;" xml:space="preserve">
<g>
	<g>
		<g>
			<path d="M256.004,313.056c15.276,0,27.704-12.428,27.704-27.705c-0.001-15.276-12.428-27.703-27.704-27.703
				s-27.706,12.427-27.706,27.703C228.298,300.628,240.726,313.056,256.004,313.056z M256.004,274.125
				c6.191,0,11.227,5.036,11.227,11.226c-0.001,6.191-5.038,11.228-11.227,11.228c-6.192,0-11.229-5.038-11.229-11.228
				C244.775,279.161,249.812,274.125,256.004,274.125z"/>
			<path d="M419.223,103.474H92.77c-4.551,0-8.239,3.689-8.239,8.238v250.471c0,4.551,3.689,8.24,8.239,8.24h326.453
				c4.551,0,8.238-3.689,8.238-8.239V111.712C427.461,107.162,423.773,103.474,419.223,103.474z M410.984,353.946H101.008V245.584
				h309.976V353.946z M410.984,229.107H101.008V119.951h309.976V229.107z"/>
			<path d="M256.004,187.433c15.276,0,27.704-12.428,27.704-27.704c-0.001-15.276-12.428-27.704-27.704-27.704
				s-27.706,12.428-27.706,27.704S240.726,187.433,256.004,187.433z M256.004,148.501c6.191,0,11.227,5.036,11.227,11.227
				c0,6.191-5.038,11.227-11.227,11.227c-6.192,0-11.229-5.036-11.229-11.227C244.775,153.537,249.812,148.501,256.004,148.501z"/>
			<path d="M503.762,23.377H8.238C3.688,23.377,0,27.066,0,31.615v33.374c0,4.55,3.688,8.239,8.238,8.239h20.405v407.156
				c0,4.55,3.689,8.239,8.239,8.239h34.773c3.974,0,7.383-2.837,8.102-6.746l9.82-53.313h332.85l9.82,53.313
				c0.719,3.908,4.128,6.746,8.102,6.746h34.773c4.551,0,8.238-3.689,8.238-8.239V73.228h20.398c4.551,0,8.239-3.689,8.239-8.239
				V31.615C512,27.066,508.312,23.377,503.762,23.377z M64.795,472.145H45.121v-43.582h27.703L64.795,472.145z M45.121,412.086
				V73.228h421.766v338.859H45.121z M466.886,472.145L466.886,472.145H447.21l-8.029-43.582h27.704V472.145z M495.523,56.751H16.477
				V39.854h479.046V56.751z"/>
		</g>
	</g>
</g>
<g>
</g>
<g>
</g>
<g>
</g>
<g>
</g>
<g>
</g>
<g>
</g>
<g>
</g>
<g>
</g>
<g>
</g>
<g>
</g>
<g>
</g>
<g>
</g>
<g>
</g>
<g>
</g>
<g>
</g>
</svg>
