<?xml version="1.0" encoding="iso-8859-1"?>
<!-- Generator: Adobe Illustrator 19.0.0, SVG Export Plug-In . SVG Version: 6.00 Build 0)  -->
<svg version="1.1" id="Layer_1" xmlns="http://www.w3.org/2000/svg" xmlns:xlink="http://www.w3.org/1999/xlink" x="0px" y="0px"
	 viewBox="0 0 512 512" style="enable-background:new 0 0 512 512;" xml:space="preserve">
<g>
	<g>
		<g>
			<path d="M194.639,429.581H166.11c-7.318,0-13.271,5.954-13.271,13.27v11.293c0,7.319,5.954,13.271,13.271,13.271h28.529
				c7.317,0,13.271-5.954,13.271-13.271v-11.293C207.91,435.534,201.956,429.581,194.639,429.581z M191.596,451.101h-22.442v-5.205
				h22.442V451.101z"/>
			<path d="M194.64,42.029h-23.011c-7.317,0-13.27,5.954-13.27,13.27V78.31c0,7.318,5.954,13.27,13.27,13.27h23.011
				c7.317,0,13.271-5.954,13.271-13.27V55.299C207.911,47.981,201.957,42.029,194.64,42.029z M191.597,75.265h-16.923V58.342h16.923
				V75.265z"/>
			<path d="M351.476,0H160.524c-19.479,0-35.327,15.848-35.327,35.327v441.345c0,19.479,15.848,35.328,35.327,35.328h190.953
				c19.479,0,35.327-15.848,35.327-35.328V35.327C386.804,15.848,370.956,0,351.476,0z M141.51,35.327
				c0-10.485,8.529-19.013,19.013-19.013h190.953c10.485,0,19.013,8.529,19.013,19.013v60.392H141.51V35.327z M370.491,476.672
				h-0.001c0,10.485-8.529,19.014-19.013,19.014H160.525c-10.484,0-19.013-8.529-19.013-19.014V112.033h228.979V476.672z"/>
			<path d="M159.719,311.454h46.833c5.7,0,10.631-3.303,13.017-8.088c2.385,4.784,7.316,8.088,13.017,8.088h46.834
				c5.7,0,10.63-3.303,13.017-8.088c2.385,4.784,7.316,8.088,13.017,8.088h46.833c8.022,0,14.548-6.527,14.548-14.549v-13.422
				c0-8.022-6.526-14.549-14.548-14.549h-46.833c-5.7,0-10.63,3.303-13.017,8.088c-2.385-4.784-7.316-8.088-13.017-8.088h-46.834
				c-5.7,0-10.631,3.303-13.017,8.09c-2.385-4.785-7.316-8.09-13.017-8.09h-46.833c-8.022,0-14.549,6.527-14.549,14.549v13.422
				C145.17,304.928,151.696,311.454,159.719,311.454z M307.216,285.249h43.302v9.892h-43.302V285.249z M234.35,285.249h43.302v9.892
				H234.35V285.249z M161.484,285.249h43.302v9.892h-43.302V285.249z"/>
			<path d="M340.371,42.029h-23.01c-7.317,0-13.27,5.954-13.27,13.27V78.31c0,7.318,5.954,13.27,13.27,13.27h23.01
				c7.318,0,13.27-5.954,13.27-13.27V55.299C353.641,47.981,347.688,42.029,340.371,42.029z M337.327,75.265h-16.922V58.342h16.922
				V75.265z"/>
			<path d="M345.889,338.606h-28.528c-7.317,0-13.27,5.954-13.27,13.27v11.294c0,7.317,5.954,13.27,13.27,13.27h28.528
				c7.319,0,13.271-5.954,13.271-13.27v-11.294C359.162,344.559,353.208,338.606,345.889,338.606z M342.847,360.125h-22.442v-5.205
				h22.442V360.125z"/>
			<path d="M345.889,429.581h-28.528c-7.317,0-13.27,5.954-13.27,13.27v11.293c0,7.319,5.954,13.271,13.27,13.271h28.528
				c7.319,0,13.271-5.954,13.271-13.271v-11.293C359.162,435.534,353.208,429.581,345.889,429.581z M342.847,451.101h-22.442v-5.205
				h22.442V451.101z"/>
			<path d="M159.719,213.449h46.833c5.7,0,10.631-3.303,13.017-8.09c2.385,4.785,7.316,8.09,13.017,8.09h46.834
				c5.7,0,10.63-3.303,13.017-8.089c2.385,4.784,7.316,8.089,13.017,8.089h46.833c8.022,0,14.548-6.527,14.548-14.549v-13.423
				c0-8.022-6.526-14.549-14.548-14.549h-46.833c-5.7,0-10.63,3.303-13.017,8.089c-2.385-4.784-7.316-8.089-13.017-8.089h-46.834
				c-5.7,0-10.631,3.303-13.017,8.09c-2.385-4.786-7.316-8.09-13.017-8.09h-46.833c-8.022,0-14.549,6.527-14.549,14.549V198.9
				C145.17,206.922,151.696,213.449,159.719,213.449z M307.216,187.242h43.302v9.893h-43.302V187.242z M234.35,187.242h43.302v9.893
				H234.35V187.242z M161.484,187.242h43.302v9.893h-43.302V187.242z"/>
			<path d="M159.719,164.445h46.833c5.7,0,10.631-3.303,13.017-8.089c2.385,4.784,7.316,8.089,13.017,8.089h46.834
				c5.7,0,10.63-3.303,13.017-8.089c2.385,4.784,7.316,8.089,13.017,8.089h46.833c8.022,0,14.548-6.527,14.548-14.549v-13.422
				c0-8.022-6.526-14.549-14.548-14.549h-46.833c-5.7,0-10.63,3.303-13.017,8.089c-2.385-4.784-7.316-8.089-13.017-8.089h-46.834
				c-5.7,0-10.631,3.303-13.017,8.09c-2.385-4.786-7.316-8.09-13.017-8.09h-46.833c-8.022,0-14.549,6.527-14.549,14.549v13.422
				C145.17,157.919,151.696,164.445,159.719,164.445z M307.216,138.24h43.302v9.892h-43.302V138.24z M234.35,138.24h43.302v9.892
				H234.35V138.24z M161.484,138.24h43.302v9.892h-43.302V138.24z"/>
			<path d="M166.11,376.439h28.529c7.317,0,13.271-5.954,13.271-13.27v-11.294c0-7.317-5.954-13.27-13.271-13.27H166.11
				c-7.318,0-13.271,5.954-13.271,13.27v11.294C152.838,370.487,158.792,376.439,166.11,376.439z M169.153,354.92h22.442v5.205
				h-22.442V354.92z"/>
			<path d="M159.719,262.452h46.833c5.7,0,10.631-3.303,13.017-8.09c2.385,4.786,7.316,8.09,13.017,8.09h46.834
				c5.7,0,10.63-3.303,13.017-8.088c2.385,4.784,7.316,8.088,13.017,8.088h46.833c8.022,0,14.548-6.527,14.548-14.549V234.48
				c0-8.022-6.526-14.549-14.548-14.549h-46.833c-5.7,0-10.63,3.303-13.017,8.089c-2.385-4.784-7.316-8.089-13.017-8.089h-46.834
				c-5.7,0-10.631,3.303-13.017,8.089c-2.385-4.784-7.316-8.089-13.017-8.089h-46.833c-8.022,0-14.549,6.527-14.549,14.549v13.422
				C145.17,255.925,151.696,262.452,159.719,262.452z M307.216,236.246h43.302v9.892h-43.302V236.246z M234.35,236.246h43.302v9.892
				H234.35V236.246z M161.484,236.246h43.302v9.892h-43.302V236.246z"/>
			<path d="M316.569,418.35v-30.68c0-8.022-6.527-14.549-14.549-14.549h-16.132v-16.133c0-8.022-6.527-14.548-14.549-14.548h-30.681
				c-8.022,0-14.549,6.526-14.549,14.548v16.132h-16.132c-8.022,0-14.548,6.527-14.548,14.549v30.681
				c0,8.022,6.526,14.549,14.548,14.549h16.132v16.132c0,8.022,6.527,14.549,14.549,14.549h30.681
				c8.022,0,14.549-6.527,14.549-14.549v-16.132h16.132C310.043,432.899,316.569,426.373,316.569,418.35z M231.402,416.584h-19.658
				v-27.15h19.658c-0.107,0.677-0.178,1.364-0.178,2.07v23.011C231.224,415.222,231.296,415.909,231.402,416.584z M242.424,447.265
				v-19.658c0.677,0.108,1.364,0.178,2.07,0.178h23.01c0.706,0,1.393-0.072,2.07-0.178v19.658H242.424z M247.538,411.472v-16.923
				h16.922v16.923H247.538z M269.576,378.413h-0.001c-0.677-0.108-1.364-0.178-2.07-0.178h-23.01c-0.706,0-1.393,0.071-2.07,0.178
				v-19.658h27.15V378.413z M300.255,416.584h-19.659c0.108-0.675,0.178-1.364,0.178-2.069v-23.011c0-0.706-0.071-1.393-0.178-2.07
				h19.659V416.584z"/>
		</g>
	</g>
</g>
<g>
</g>
<g>
</g>
<g>
</g>
<g>
</g>
<g>
</g>
<g>
</g>
<g>
</g>
<g>
</g>
<g>
</g>
<g>
</g>
<g>
</g>
<g>
</g>
<g>
</g>
<g>
</g>
<g>
</g>
</svg>
